<svg xmlns="http://www.w3.org/2000/svg" id="filled_outline" width="60.82" height="62.889" viewBox="0 0 60.82 62.889">
    <defs>
        <style>
            .cls-3{fill:#dcdbd6}.cls-5{fill:#0042b9}
        </style>
    </defs>
    <path id="Path_61" fill="#bbbab6" d="M98.648 85.528H40V50.774l25.245-24.31a5.881 5.881 0 0 1 8.158 0l25.245 24.31z" transform="translate(-38.914 -23.725)"/>
    <path id="Rectangle_165" fill="#ff924f" d="M0 0H49.959V43.443H0z" transform="translate(5.43 5.328)"/>
    <path id="Path_62" d="M98.648 216l-29.324 18.463L40 216v34.754h58.648z" class="cls-3" transform="translate(-38.914 -188.951)"/>
    <path id="Path_63" fill="#e6e5e0" d="M75.155 324.586L98.648 344.6H40l23.458-19.983z" transform="translate(-38.914 -282.796)"/>
    <ellipse id="Ellipse_28" cx="10.39" cy="13.519" class="cls-3" rx="10.39" ry="13.519" transform="translate(20.092 9.785)"/>
    <path id="Path_64" d="M92.817 43.743a1.086 1.086 0 0 0-.33-.72l-4.012-3.863V22.084A1.086 1.086 0 0 0 87.389 21H69.615l-2.372-2.285a6.945 6.945 0 0 0-9.665 0L55.2 21H37.43a1.086 1.086 0 0 0-1.086 1.086V39.16l-4.012 3.863a1.084 1.084 0 0 0-.329.714.594.594 0 0 0 0 .069v34.753a1.086 1.086 0 0 0 1.021 1.083.483.483 0 0 0 .065 0h58.645a.558.558 0 0 0 .071 0 1.085 1.085 0 0 0 1.015-1.082V43.805a.48.48 0 0 0 0-.062zm-2.169 2.03v30.435L70.1 58.707zm-.667-2.147l-1.506.948v-2.4zm-30.9-23.347a4.78 4.78 0 0 1 6.652 0l.748.72h-8.144zM86.3 23.17v22.771L68 57.461l-11.148.028-18.336-11.548V23.17zM54.716 58.707l-20.544 17.5V45.772zM36.344 44.573l-1.506-.948 1.506-1.449zm-.308 32.9l20.91-17.812 10.9-.027 20.938 17.839z" class="cls-5" transform="translate(-32 -16.756)"/>
    <path id="Path_65" d="M183.476 110.047a10.354 10.354 0 0 0 8.208-4.384 17.618 17.618 0 0 0 0-20.442 9.876 9.876 0 0 0-16.416 0 17.618 17.618 0 0 0 0 20.442 10.354 10.354 0 0 0 8.208 4.384zm9.3-15.133l-2.276-1.422a1.086 1.086 0 0 0-1.151 0l-3.769 2.355-3.768-2.355a1.086 1.086 0 0 0-1.151 0l-3.769 2.355-2.672-1.667a15.78 15.78 0 0 1 .673-3.534l1.419.887a1.086 1.086 0 0 0 1.151 0l3.769-2.355L185 91.533a1.086 1.086 0 0 0 1.151 0l3.769-2.355 2.086 1.3a15.89 15.89 0 0 1 .765 4.436zm-16.459 3.135a1.086 1.086 0 0 0 1.151 0l3.769-2.355L185 98.049a1.086 1.086 0 0 0 1.151 0l3.769-2.355 2.742 1.714a15.474 15.474 0 0 1-.813 3.447l-1.355-.847a1.086 1.086 0 0 0-1.151 0l-3.768 2.355-3.768-2.355a1.086 1.086 0 0 0-1.151 0l-3.769 2.355-1.587-.991a15.473 15.473 0 0 1-1.077-4.628zm7.164 9.826a8.144 8.144 0 0 1-6.231-3.208 1.087 1.087 0 0 0 .217-.1l3.77-2.355 3.763 2.353a1.086 1.086 0 0 0 1.151 0l3.769-2.355 1.024.64c-1.698 3.05-4.413 5.025-7.468 5.025zm0-24.866a8.379 8.379 0 0 1 6.716 3.837 1.085 1.085 0 0 0-.848.129l-3.768 2.355-3.768-2.355a1.086 1.086 0 0 0-1.151 0l-3.769 2.355-1.174-.733c1.661-3.364 4.518-5.588 7.757-5.588z" class="cls-5" transform="translate(-152.994 -72.138)"/>
    <circle id="Ellipse_29" cx="1.086" cy="1.086" r="1.086" class="cls-5" transform="translate(27.152 31.643)"/>
    <circle id="Ellipse_30" cx="1.086" cy="1.086" r="1.086" class="cls-5" transform="translate(31.496 26.755)"/>
    <circle id="Ellipse_31" cx="1.086" cy="1.086" r="1.086" class="cls-5" transform="translate(35.875 18.474)"/>
    <circle id="Ellipse_32" cx="1.086" cy="1.086" r="1.086" class="cls-5" transform="translate(27.152 18.338)"/>
    <circle id="Ellipse_33" cx="1.086" cy="1.086" r="1.086" class="cls-5" transform="translate(31.496 12.772)"/>
    <path id="Path_66" d="M297.086 434.172h3.258a1.086 1.086 0 1 0 0-2.172h-3.258a1.086 1.086 0 0 0 0 2.172z" class="cls-5" transform="translate(-260.16 -375.627)"/>
    <path id="Path_67" d="M353.086 434.172h1.086a1.086 1.086 0 1 0 0-2.172h-1.086a1.086 1.086 0 0 0 0 2.172z" class="cls-5" transform="translate(-308.557 -375.627)"/>
</svg>
