<svg xmlns="http://www.w3.org/2000/svg" id="phone" width="69.508" height="61.091" viewBox="0 0 69.508 61.091">
    <defs>
        <style>
            .cls-5{fill:#f8f8f8}
        </style>
    </defs>
    <path id="Path_78" fill="#ff924f" d="M210.681 31H194.39a14.245 14.245 0 0 0-2.036 28.364v6.254a2.036 2.036 0 0 0 3.476 1.44l6.706-6.706.843-.843h7.3a14.255 14.255 0 1 0 0-28.509z" transform="translate(-155.563 -31)"/>
    <path id="Path_79" fill="#ff7816" d="M354.146 59.509a14.255 14.255 0 1 0 0-28.509H346v29.352l.843-.843z" transform="translate(-299.028 -31)"/>
    <path id="Path_80" fill="#005edb" d="M51.86 137.469v8.146a6.094 6.094 0 0 1-6.081 6.109c-11.731 0-23.175-5.546-31.687-14.024S0 117.812 0 106.081A6.091 6.091 0 0 1 6.109 100h8.146a2.033 2.033 0 0 1 1.93 1.392l4.073 12.19a2.038 2.038 0 0 1-.236 1.774l-3.454 5.182a31.909 31.909 0 0 0 6.3 8.387 33.153 33.153 0 0 0 8.455 6.231L36.5 131.7a2.039 2.039 0 0 1 1.774-.236l12.226 4.075a2.007 2.007 0 0 1 1.363 1.93z" transform="translate(0 -90.633)"/>
    <path id="Path_81" fill="#0042b9" d="M141.568 321.6v8.145a6.094 6.094 0 0 1-6.081 6.109c-11.731 0-23.175-5.546-31.687-14.024l8.775-8.775a33.154 33.154 0 0 0 8.455 6.231l5.182-3.454a2.039 2.039 0 0 1 1.774-.236l12.218 4.073a2.007 2.007 0 0 1 1.364 1.931z" transform="translate(-89.708 -274.768)"/>
    <circle id="Ellipse_34" cx="1.975" cy="1.975" r="1.975" class="cls-5" transform="translate(36.66 12.379)"/>
    <ellipse id="Ellipse_35" cx="2.37" cy="1.975" class="cls-5" rx="2.37" ry="1.975" transform="translate(44.56 12.379)"/>
    <g id="Group_278" transform="translate(46.972 12.218)">
        <path id="Path_82" d="M348.036 123.034A2.036 2.036 0 0 0 346 121v4.073a2.036 2.036 0 0 0 2.036-2.039z" class="cls-5" transform="translate(-346 -120.998)"/>
        <circle id="Ellipse_36" cx="1.975" cy="1.975" r="1.975" class="cls-5" transform="translate(6.275 .161)"/>
    </g>
</svg>
